<svg xmlns="http://www.w3.org/2000/svg" width="148.155" height="35.738" viewBox="0 0 148.155 35.738"><g transform="translate(0 0.375)"><path d="M31.01,33.928a3.467,3.467,0,0,1-1.453-2.55h2.363a1.754,1.754,0,0,0,.807,1.029,2.817,2.817,0,0,0,1.5.382,2.328,2.328,0,0,0,1.683-.621,2.492,2.492,0,0,0,.646-1.878V28.829a3.626,3.626,0,0,1-1.267,1.105,3.781,3.781,0,0,1-1.844.442,4.046,4.046,0,0,1-2.176-.612,4.269,4.269,0,0,1-1.555-1.726,5.536,5.536,0,0,1-.57-2.558,5.452,5.452,0,0,1,.57-2.534,4.18,4.18,0,0,1,1.547-1.7,4.124,4.124,0,0,1,2.184-.595,3.948,3.948,0,0,1,1.853.417,3.407,3.407,0,0,1,1.258,1.079V20.8h2.4V30.29a5.042,5.042,0,0,1-.527,2.337,3.913,3.913,0,0,1-1.58,1.633,5.057,5.057,0,0,1-2.551.6A5.445,5.445,0,0,1,31.01,33.928Zm1.828-10.863a2.433,2.433,0,0,0-.91.944,2.955,2.955,0,0,0-.348,1.471,3.053,3.053,0,0,0,.348,1.487,2.506,2.506,0,0,0,.918.978,2.339,2.339,0,0,0,1.216.339,2.45,2.45,0,0,0,1.241-.331A2.4,2.4,0,0,0,36.221,27a3.421,3.421,0,0,0,0-2.974,2.394,2.394,0,0,0-.918-.952,2.45,2.45,0,0,0-1.241-.331A2.411,2.411,0,0,0,32.837,23.065Zm38.445,6.707A4.247,4.247,0,0,1,69.6,28.064a5.237,5.237,0,0,1-.6-2.551,5.33,5.33,0,0,1,.595-2.567,4.148,4.148,0,0,1,1.666-1.7,5.349,5.349,0,0,1,4.87-.017,4.078,4.078,0,0,1,1.65,1.641,4.97,4.97,0,0,1,.586,2.44,5.654,5.654,0,0,1-.067.918H71.41a2.341,2.341,0,0,0,.714,1.6,2.2,2.2,0,0,0,1.547.579,1.944,1.944,0,0,0,1.887-1.139h2.567A4.294,4.294,0,0,1,76.561,29.5a4.568,4.568,0,0,1-2.839.876A4.914,4.914,0,0,1,71.283,29.772Zm.884-6.63a2.353,2.353,0,0,0-.739,1.488H75.9a1.888,1.888,0,0,0-.662-1.471,2.351,2.351,0,0,0-1.581-.553A2.163,2.163,0,0,0,72.167,23.142Zm-29.206,6.63a4.253,4.253,0,0,1-1.683-1.708,5.237,5.237,0,0,1-.6-2.551,5.33,5.33,0,0,1,.595-2.567,4.154,4.154,0,0,1,1.666-1.7,5.351,5.351,0,0,1,4.871-.017,4.076,4.076,0,0,1,1.649,1.641,4.97,4.97,0,0,1,.586,2.44,5.654,5.654,0,0,1-.068.918H43.088a2.341,2.341,0,0,0,.714,1.6,2.2,2.2,0,0,0,1.547.579,1.944,1.944,0,0,0,1.887-1.139H49.8A4.294,4.294,0,0,1,48.239,29.5a4.568,4.568,0,0,1-2.839.876A4.914,4.914,0,0,1,42.961,29.772Zm.884-6.63a2.353,2.353,0,0,0-.739,1.488h4.471a1.892,1.892,0,0,0-.663-1.471,2.351,2.351,0,0,0-1.581-.553A2.163,2.163,0,0,0,43.844,23.142Zm-23.2,6.63a4.351,4.351,0,0,1-1.709-1.708,5.127,5.127,0,0,1-.62-2.551,5.013,5.013,0,0,1,.637-2.55A4.434,4.434,0,0,1,20.7,21.255a5.333,5.333,0,0,1,4.93,0,4.434,4.434,0,0,1,1.742,1.708,5.013,5.013,0,0,1,.637,2.55,4.909,4.909,0,0,1-.654,2.551,4.533,4.533,0,0,1-1.768,1.708,5.141,5.141,0,0,1-2.49.6A4.958,4.958,0,0,1,20.649,29.772Zm.773-6.324a2.88,2.88,0,0,0-.688,2.066,2.925,2.925,0,0,0,.671,2.066A2.209,2.209,0,0,0,23.1,28.3a2.475,2.475,0,0,0,1.215-.314,2.288,2.288,0,0,0,.91-.944,3.187,3.187,0,0,0,.339-1.53,2.839,2.839,0,0,0-.7-2.066,2.321,2.321,0,0,0-1.726-.722A2.265,2.265,0,0,0,21.422,23.448Zm65.535,6.494a1.4,1.4,0,0,1,0-1.989,1.471,1.471,0,0,1,1.062-.4,1.42,1.42,0,0,1,1.037.4,1.415,1.415,0,0,1,0,1.989,1.42,1.42,0,0,1-1.037.4A1.471,1.471,0,0,1,86.957,29.942Zm-6.86.281V20.8h2.38v1.462a3.274,3.274,0,0,1,2.891-1.6v2.5h-.629a2.414,2.414,0,0,0-1.692.526,2.431,2.431,0,0,0-.57,1.836v4.693Zm-15.13,0v-5.2a2.446,2.446,0,0,0-.561-1.726,1.988,1.988,0,0,0-1.53-.6,2.036,2.036,0,0,0-1.556.6,2.42,2.42,0,0,0-.57,1.726v5.2h-2.38V17.643h2.38v4.335a3.1,3.1,0,0,1,1.224-.961,4.059,4.059,0,0,1,1.7-.348,3.817,3.817,0,0,1,1.9.468,3.217,3.217,0,0,1,1.3,1.377,4.727,4.727,0,0,1,.467,2.184v5.525Zm-9.809,0q-3.009,0-3.009-2.924v-4.54H51.027V20.8H52.15V18.475h2.4V20.8h2.108v1.955H54.546v4.557a.9.9,0,0,0,.229.688,1.128,1.128,0,0,0,.773.212h1.105v2.006Zm-39.457,0q-3.009,0-3.009-2.924v-4.54H11.57V20.8h1.122V18.475h2.4V20.8H17.2v1.955H15.089v4.557a.9.9,0,0,0,.229.688,1.128,1.128,0,0,0,.773.212H17.2v2.006ZM62.879,17.159a3.464,3.464,0,0,1-1.453-2.55h2.362a1.765,1.765,0,0,0,.808,1.029,2.814,2.814,0,0,0,1.5.383,2.327,2.327,0,0,0,1.683-.621,2.49,2.49,0,0,0,.646-1.878V12.059a3.6,3.6,0,0,1-1.266,1.105,3.772,3.772,0,0,1-1.845.442,4.038,4.038,0,0,1-2.175-.612,4.256,4.256,0,0,1-1.556-1.725,5.539,5.539,0,0,1-.569-2.559,5.448,5.448,0,0,1,.569-2.533,4.175,4.175,0,0,1,1.547-1.7,4.116,4.116,0,0,1,2.184-.595,3.948,3.948,0,0,1,1.853.417,3.407,3.407,0,0,1,1.258,1.079V4.036h2.4v9.486a5.055,5.055,0,0,1-.526,2.337,3.908,3.908,0,0,1-1.581,1.632,5.054,5.054,0,0,1-2.55.6A5.445,5.445,0,0,1,62.879,17.159ZM64.706,6.3a2.435,2.435,0,0,0-.909.943,2.96,2.96,0,0,0-.348,1.471A3.054,3.054,0,0,0,63.8,10.2a2.509,2.509,0,0,0,.918.977,2.331,2.331,0,0,0,1.215.34,2.456,2.456,0,0,0,1.241-.331,2.4,2.4,0,0,0,.918-.952,3.054,3.054,0,0,0,.34-1.488,3.054,3.054,0,0,0-.34-1.488,2.4,2.4,0,0,0-.918-.951,2.448,2.448,0,0,0-1.241-.332A2.414,2.414,0,0,0,64.706,6.3ZM22.206,13A4.345,4.345,0,0,1,20.5,11.294a5.115,5.115,0,0,1-.621-2.55,5.012,5.012,0,0,1,.638-2.55,4.424,4.424,0,0,1,1.742-1.709,5.34,5.34,0,0,1,4.93,0A4.43,4.43,0,0,1,28.93,6.195a5.011,5.011,0,0,1,.637,2.55,4.905,4.905,0,0,1-.654,2.55A4.532,4.532,0,0,1,27.144,13a5.138,5.138,0,0,1-2.49.6A4.962,4.962,0,0,1,22.206,13Zm.774-6.324a2.877,2.877,0,0,0-.688,2.065,2.92,2.92,0,0,0,.671,2.066,2.211,2.211,0,0,0,1.691.723,2.477,2.477,0,0,0,1.216-.315,2.284,2.284,0,0,0,.909-.943,3.177,3.177,0,0,0,.34-1.53,2.833,2.833,0,0,0-.706-2.065,2.318,2.318,0,0,0-1.725-.723A2.264,2.264,0,0,0,22.98,6.679Zm-20.043,6.1a5.62,5.62,0,0,1-2.176-2.15A6.166,6.166,0,0,1-.03,7.5a6.213,6.213,0,0,1,.79-3.136A5.606,5.606,0,0,1,2.937,2.208a6.219,6.219,0,0,1,3.085-.773,6.173,6.173,0,0,1,3.485.977,4.991,4.991,0,0,1,2.04,2.746H8.81A2.783,2.783,0,0,0,7.688,4.019a3.411,3.411,0,0,0-1.666-.391,3.649,3.649,0,0,0-1.87.475A3.292,3.292,0,0,0,2.877,5.464,4.361,4.361,0,0,0,2.418,7.5a4.379,4.379,0,0,0,.467,2.074,3.315,3.315,0,0,0,1.3,1.36,3.844,3.844,0,0,0,1.938.476,3.363,3.363,0,0,0,2.227-.723A3.445,3.445,0,0,0,9.49,8.677H5.41V6.857h6.426V8.932a5.576,5.576,0,0,1-1.02,2.3A5.761,5.761,0,0,1,8.8,12.918a5.914,5.914,0,0,1-2.762.638A6.253,6.253,0,0,1,2.937,12.782Zm54.051.671v-5.2a2.444,2.444,0,0,0-.561-1.725,1.988,1.988,0,0,0-1.53-.6,2.036,2.036,0,0,0-1.556.6,2.418,2.418,0,0,0-.57,1.725v5.2h-2.38V4.036h2.38V5.208a3.292,3.292,0,0,1,1.216-.96A3.762,3.762,0,0,1,55.611,3.9a3.629,3.629,0,0,1,2.72,1.062,4.068,4.068,0,0,1,1.037,2.966v5.525Zm-11.322,0V4.036h2.38v9.418Zm-6.613,0L37.336,6.874l-1.716,6.579H33.035l-2.77-9.418h2.414l1.666,7.174,1.8-7.174h2.516l1.768,7.157L42.1,4.036h2.278L41.62,13.453Zm-25.449,0V4.036h2.38V5.5a3.275,3.275,0,0,1,2.89-1.6V6.4h-.629a2.412,2.412,0,0,0-1.691.527,2.428,2.428,0,0,0-.57,1.836v4.692ZM45.827,2.514a1.323,1.323,0,0,1-.416-.994,1.324,1.324,0,0,1,.416-.995,1.568,1.568,0,0,1,2.092,0,1.324,1.324,0,0,1,.416.995,1.323,1.323,0,0,1-.416.994,1.568,1.568,0,0,1-2.092,0Z" transform="translate(58.19 0)" fill="#f9f9ff" stroke="rgba(0,0,0,0)" stroke-miterlimit="10" stroke-width="1"/><path d="M48.6,32.6H32.4V16.2A16.268,16.268,0,0,0,24.338,2.188,16.293,16.293,0,0,1,32.5,0H48.6V32.6Zm-16.358,0H16.2A16.2,16.2,0,0,1,0,16.4v-.2A16.205,16.205,0,0,1,24.338,2.188,16.3,16.3,0,0,0,32.245,32.6Z" transform="translate(0 2.061)" fill="#fff"/></g></svg>