<svg xmlns="http://www.w3.org/2000/svg" width="320" height="114.248" viewBox="0 0 320 114.248"><g transform="translate(160 57.124)"><g transform="translate(-160 -57.124)"><rect width="320" height="114.248" fill="none"/><g transform="translate(28.667 28.818)"><g transform="translate(0 2.476)"><path d="M66.038,31.906H44.251L29.228,75.5l0,.009a36.655,36.655,0,0,0,51.833,0Z" transform="translate(-29.228 -31.906)" fill="#4b959d"/></g><g transform="translate(64.527 4.671)"><path d="M115.255,48.023a8.23,8.23,0,0,1-3.433,3.253,12.088,12.088,0,0,1-5.749,1.237h-4.231V62.573H95.017V34.552h11.057a12.579,12.579,0,0,1,5.668,1.157,7.966,7.966,0,0,1,3.473,3.194,9.275,9.275,0,0,1,1.157,4.67A9.028,9.028,0,0,1,115.255,48.023Zm-6.786-1.857a3.991,3.991,0,0,0,0-5.188,4.073,4.073,0,0,0-2.914-.918h-3.712v7.026h3.712A4.068,4.068,0,0,0,108.469,46.167Z" transform="translate(-95.017 -34.152)" fill="#092b2d"/><path d="M134.7,62.573l-5.828-10.578h-1.636V62.573h-6.826V34.552h11.456a12.607,12.607,0,0,1,5.648,1.157,7.982,7.982,0,0,1,3.493,3.173,8.867,8.867,0,0,1,1.157,4.49,8.338,8.338,0,0,1-1.576,4.99,8.486,8.486,0,0,1-4.65,3.113l6.466,11.1Zm-7.464-15.408h4.23a3.877,3.877,0,0,0,2.815-.918,3.467,3.467,0,0,0,.938-2.594,3.36,3.36,0,0,0-.938-2.515,3.877,3.877,0,0,0-2.815-.919h-4.23Z" transform="translate(-95.504 -34.152)" fill="#092b2d"/><path d="M152.931,61.008a13.724,13.724,0,0,1-5.229-5.13,15.095,15.095,0,0,1,0-14.789,13.776,13.776,0,0,1,5.229-5.109,15.206,15.206,0,0,1,14.49,0,13.491,13.491,0,0,1,5.19,5.109,15.3,15.3,0,0,1-.021,14.789,13.628,13.628,0,0,1-5.189,5.13,15.174,15.174,0,0,1-14.471,0Zm12.613-6.626a8.481,8.481,0,0,0,2.017-5.907,8.468,8.468,0,0,0-2.017-5.928,6.905,6.905,0,0,0-5.368-2.215,6.984,6.984,0,0,0-5.408,2.2,8.451,8.451,0,0,0-2.017,5.948,8.464,8.464,0,0,0,2.017,5.927,6.951,6.951,0,0,0,5.408,2.216A6.871,6.871,0,0,0,165.544,54.382Z" transform="translate(-95.991 -34.144)" fill="#092b2d"/></g><g transform="translate(148.571)"><path d="M195.271,56.613v6h-3.6a8.811,8.811,0,0,1-6-1.882q-2.152-1.883-2.152-6.145V45.4h-2.813V39.524h2.813V33.9H190.6v5.628h4.633V45.4H190.6v9.269a1.943,1.943,0,0,0,.5,1.49,2.423,2.423,0,0,0,1.657.455Z" transform="translate(-180.706 -29.469)" fill="#4b959d"/><path d="M221.175,52.868H205.163a4.8,4.8,0,0,0,1.385,3.289,4.229,4.229,0,0,0,3,1.139,3.716,3.716,0,0,0,3.682-2.234h7.532a10.338,10.338,0,0,1-2.089,4.1,10.464,10.464,0,0,1-3.786,2.855,12.169,12.169,0,0,1-5.09,1.035,12.377,12.377,0,0,1-6.041-1.449,10.3,10.3,0,0,1-4.138-4.137,12.77,12.77,0,0,1-1.489-6.29,12.911,12.911,0,0,1,1.468-6.289,10.171,10.171,0,0,1,4.117-4.138A12.472,12.472,0,0,1,209.8,39.3a12.345,12.345,0,0,1,5.958,1.407,10.1,10.1,0,0,1,4.076,4.013A12.2,12.2,0,0,1,221.3,50.8,17.934,17.934,0,0,1,221.175,52.868Zm-7.117-3.931a3.638,3.638,0,0,0-1.241-2.9,4.569,4.569,0,0,0-3.1-1.076,4.483,4.483,0,0,0-3,1.035,4.593,4.593,0,0,0-1.509,2.938Z" transform="translate(-181.04 -29.572)" fill="#4b959d"/><path d="M239.159,62.722l-4.427-6.414-3.724,6.414h-7.654l7.613-11.792-7.82-11.3h7.945l4.426,6.372,3.724-6.372H246.9l-7.737,11.627L247.1,62.722Z" transform="translate(-181.52 -29.579)" fill="#4b959d"/><path d="M263.191,56.613v6h-3.6a8.81,8.81,0,0,1-6-1.882q-2.152-1.883-2.152-6.145V45.4h-2.814V39.524h2.814V33.9h7.076v5.628h4.634V45.4h-4.634v9.269a1.94,1.94,0,0,0,.5,1.49,2.422,2.422,0,0,0,1.656.455Z" transform="translate(-182.009 -29.469)" fill="#4b959d"/><path d="M267.988,35.941a3.551,3.551,0,0,1-1.18-2.71,3.6,3.6,0,0,1,1.18-2.752,4.289,4.289,0,0,1,3.042-1.1,4.235,4.235,0,0,1,3,1.1,3.6,3.6,0,0,1,1.179,2.752,3.55,3.55,0,0,1-1.179,2.71,4.235,4.235,0,0,1-3,1.1A4.289,4.289,0,0,1,267.988,35.941Zm6.558,3.5V62.526H267.47V39.437Z" transform="translate(-182.358 -29.382)" fill="#4b959d"/><path d="M287,31.956V62.575h-7.076V31.956Z" transform="translate(-182.61 -29.431)" fill="#4b959d"/></g><g transform="translate(255.664 2.562)"><path d="M294.963,32.427a3.073,3.073,0,0,1,1.186,1.193,3.71,3.71,0,0,1,0,3.444,3.066,3.066,0,0,1-1.186,1.193,3.643,3.643,0,0,1-3.444,0,3.126,3.126,0,0,1-1.194-1.193,3.65,3.65,0,0,1,0-3.444,3.133,3.133,0,0,1,1.194-1.193,3.643,3.643,0,0,1,3.444,0Zm.128,4.805a2.913,2.913,0,0,0,0-3.78,2.745,2.745,0,0,0-3.708,0,2.938,2.938,0,0,0,0,3.78,2.748,2.748,0,0,0,3.708,0Zm-.552-1.915a1.061,1.061,0,0,1-.482.392l.849,1.313H293.69l-.705-1.2h-.112v1.2h-1.008V33.579h1.617a1.265,1.265,0,0,1,.9.313,1.052,1.052,0,0,1,.336.809A1.089,1.089,0,0,1,294.539,35.317Zm-1.666-.312h.544a.334.334,0,0,0,.217-.073.246.246,0,0,0,.087-.2.225.225,0,0,0-.087-.192.365.365,0,0,0-.217-.064h-.544Z" transform="translate(-289.894 -31.994)" fill="#4b959d"/></g><g transform="translate(64.921 40.068)"><path d="M101.748,71.259v1.213H99.334V80.33H97.846V72.472H95.419V71.259Z" transform="translate(-95.419 -70.254)" fill="#092b2d"/><path d="M109.932,77.324h-5.5a1.991,1.991,0,0,0,.639,1.383,2.018,2.018,0,0,0,1.409.522,1.741,1.741,0,0,0,1.7-1h1.606a3.243,3.243,0,0,1-1.182,1.625,3.465,3.465,0,0,1-2.121.633,3.683,3.683,0,0,1-1.847-.463,3.3,3.3,0,0,1-1.279-1.305,3.982,3.982,0,0,1-.463-1.951,4.08,4.08,0,0,1,.45-1.952,3.167,3.167,0,0,1,1.266-1.3,3.769,3.769,0,0,1,1.872-.457,3.656,3.656,0,0,1,1.814.444,3.135,3.135,0,0,1,1.241,1.247,3.748,3.748,0,0,1,.443,1.847A4.844,4.844,0,0,1,109.932,77.324Zm-1.5-1.2a1.689,1.689,0,0,0-.588-1.317,2.1,2.1,0,0,0-1.422-.5,1.909,1.909,0,0,0-1.318.489,2.043,2.043,0,0,0-.653,1.324Z" transform="translate(-95.562 -70.288)" fill="#092b2d"/><path d="M114.676,76.726,117,80.366h-1.684l-1.554-2.44-1.46,2.44h-1.554l2.323-3.537-2.323-3.655h1.683l1.554,2.441,1.461-2.441H117Z" transform="translate(-95.713 -70.29)" fill="#092b2d"/><path d="M119.978,74.354v3.98a.765.765,0,0,0,.188.581.94.94,0,0,0,.646.177h.914v1.24h-1.175a2.262,2.262,0,0,1-1.541-.47,1.938,1.938,0,0,1-.535-1.527v-3.98h-.848V73.14h.848V71.352h1.5V73.14h1.749v1.214Z" transform="translate(-95.845 -70.255)" fill="#092b2d"/><path d="M123.278,71.892a.952.952,0,0,1,.679-1.631.909.909,0,0,1,.666.274.979.979,0,0,1,0,1.357.906.906,0,0,1-.666.275A.921.921,0,0,1,123.278,71.892Zm1.409,1.227V80.31H123.2V73.119Z" transform="translate(-95.948 -70.235)" fill="#092b2d"/><path d="M128.2,70.66v9.658h-1.488V70.66Z" transform="translate(-96.02 -70.242)" fill="#092b2d"/><path d="M136.759,77.324h-5.5a2,2,0,0,0,.639,1.383,2.018,2.018,0,0,0,1.409.522,1.741,1.741,0,0,0,1.7-1h1.606a3.241,3.241,0,0,1-1.181,1.625,3.468,3.468,0,0,1-2.121.633,3.679,3.679,0,0,1-1.846-.463,3.3,3.3,0,0,1-1.28-1.305,3.981,3.981,0,0,1-.463-1.951,4.08,4.08,0,0,1,.45-1.952,3.173,3.173,0,0,1,1.266-1.3,3.771,3.771,0,0,1,1.872-.457,3.657,3.657,0,0,1,1.814.444,3.139,3.139,0,0,1,1.24,1.247,3.748,3.748,0,0,1,.444,1.847A4.714,4.714,0,0,1,136.759,77.324Zm-1.5-1.2a1.689,1.689,0,0,0-.587-1.317,2.1,2.1,0,0,0-1.422-.5,1.909,1.909,0,0,0-1.318.489,2.043,2.043,0,0,0-.653,1.324Z" transform="translate(-96.077 -70.288)" fill="#092b2d"/><path d="M141.974,71.892a.952.952,0,0,1,.679-1.631.905.905,0,0,1,.665.274.979.979,0,0,1,0,1.357.9.9,0,0,1-.665.275A.919.919,0,0,1,141.974,71.892Zm1.409,1.227V80.31H141.9V73.119Z" transform="translate(-96.307 -70.235)" fill="#092b2d"/><path d="M150.562,73.408a2.5,2.5,0,0,1,1.049,1.044,3.429,3.429,0,0,1,.38,1.67v4.242h-1.475V76.345a2.09,2.09,0,0,0-.483-1.482,1.954,1.954,0,0,0-2.643,0,2.07,2.07,0,0,0-.489,1.482v4.019h-1.488V73.173H146.9v.822a2.467,2.467,0,0,1,.933-.691,3,3,0,0,1,1.207-.248A3.228,3.228,0,0,1,150.562,73.408Z" transform="translate(-96.378 -70.288)" fill="#092b2d"/><path d="M153.993,74.772a3.284,3.284,0,0,1,2.956-1.762,3.373,3.373,0,0,1,1.391.307,2.854,2.854,0,0,1,1.09.816V70.66h1.5v9.658h-1.5V79.235a2.8,2.8,0,0,1-1.012.861,3.132,3.132,0,0,1-1.481.339,3.225,3.225,0,0,1-1.716-.476,3.365,3.365,0,0,1-1.227-1.332,4.1,4.1,0,0,1-.45-1.938A3.982,3.982,0,0,1,153.993,74.772Zm5.13.652a2.153,2.153,0,0,0-.8-.835,2.092,2.092,0,0,0-1.07-.287,2.112,2.112,0,0,0-1.873,1.1,2.574,2.574,0,0,0-.307,1.286A2.688,2.688,0,0,0,155.376,78a2.155,2.155,0,0,0,.809.854,2.076,2.076,0,0,0,1.064.293,2.1,2.1,0,0,0,1.07-.286,2.14,2.14,0,0,0,.8-.842,2.648,2.648,0,0,0,.307-1.3A2.612,2.612,0,0,0,159.123,75.424Z" transform="translate(-96.534 -70.242)" fill="#092b2d"/><path d="M169.582,73.175v7.191H168.1v-.848a2.425,2.425,0,0,1-.921.7,2.918,2.918,0,0,1-1.207.255,3.23,3.23,0,0,1-1.52-.352,2.546,2.546,0,0,1-1.057-1.045A3.384,3.384,0,0,1,163,77.4V73.175h1.474v4.007a2.084,2.084,0,0,0,.483,1.482,1.719,1.719,0,0,0,1.317.516,1.743,1.743,0,0,0,1.325-.516,2.069,2.069,0,0,0,.49-1.482V73.175Z" transform="translate(-96.716 -70.29)" fill="#092b2d"/><path d="M172.789,80.175a2.661,2.661,0,0,1-1.064-.836,2.081,2.081,0,0,1-.417-1.181h1.54a1.046,1.046,0,0,0,.437.764,1.587,1.587,0,0,0,1,.306,1.675,1.675,0,0,0,.972-.241.727.727,0,0,0,.345-.62.635.635,0,0,0-.384-.6,7.252,7.252,0,0,0-1.22-.431,11.816,11.816,0,0,1-1.318-.431,2.3,2.3,0,0,1-.881-.639,1.677,1.677,0,0,1-.373-1.136,1.776,1.776,0,0,1,.339-1.05,2.256,2.256,0,0,1,.973-.75,3.633,3.633,0,0,1,1.455-.275,3,3,0,0,1,1.977.621,2.216,2.216,0,0,1,.8,1.69h-1.487a1.064,1.064,0,0,0-.392-.771,1.467,1.467,0,0,0-.951-.286,1.546,1.546,0,0,0-.9.222.689.689,0,0,0-.313.587.638.638,0,0,0,.208.483,1.51,1.51,0,0,0,.509.307c.2.074.5.168.888.281a9.626,9.626,0,0,1,1.287.425,2.4,2.4,0,0,1,.867.633,1.673,1.673,0,0,1,.379,1.109,1.858,1.858,0,0,1-.339,1.1,2.254,2.254,0,0,1-.959.757,3.961,3.961,0,0,1-2.976-.033Z" transform="translate(-96.875 -70.288)" fill="#092b2d"/><path d="M180.537,74.354v3.98a.761.761,0,0,0,.189.581.936.936,0,0,0,.645.177h.914v1.24h-1.175a2.259,2.259,0,0,1-1.54-.47,1.934,1.934,0,0,1-.535-1.527v-3.98h-.848V73.14h.848V71.352h1.5V73.14h1.749v1.214Z" transform="translate(-97.007 -70.255)" fill="#092b2d"/><path d="M186.119,73.362a2.558,2.558,0,0,1,1.285-.307v1.54h-.378a1.81,1.81,0,0,0-1.325.444,2.118,2.118,0,0,0-.45,1.54v3.785h-1.488V73.173h1.488v1.045A2.327,2.327,0,0,1,186.119,73.362Z" transform="translate(-97.114 -70.288)" fill="#092b2d"/><path d="M188.948,71.892a.952.952,0,0,1,.679-1.631.905.905,0,0,1,.665.274.978.978,0,0,1,0,1.357.9.9,0,0,1-.665.275A.919.919,0,0,1,188.948,71.892Zm1.409,1.227V80.31h-1.488V73.119Z" transform="translate(-97.208 -70.235)" fill="#092b2d"/><path d="M198.843,73.175l-4.412,10.572h-1.54l1.461-3.5-2.832-7.075h1.657l2.023,5.482,2.1-5.482Z" transform="translate(-97.263 -70.29)" fill="#092b2d"/><path d="M205.078,72.459v2.663h3.132v1.214h-3.132v2.78H208.6v1.213H203.59V71.246H208.6v1.213Z" transform="translate(-97.495 -70.253)" fill="#092b2d"/><path d="M215.274,80.33,213.186,76.7H212.05V80.33h-1.488V71.259h3.132a3.9,3.9,0,0,1,1.769.365,2.545,2.545,0,0,1,1.083.979,2.664,2.664,0,0,1,.359,1.371,2.717,2.717,0,0,1-.515,1.611,2.624,2.624,0,0,1-1.587.986l2.245,3.758Zm-3.224-4.816h1.644a1.726,1.726,0,0,0,1.26-.418,1.5,1.5,0,0,0,.424-1.122,1.456,1.456,0,0,0-.417-1.1,1.78,1.78,0,0,0-1.267-.4H212.05Z" transform="translate(-97.628 -70.254)" fill="#092b2d"/><path d="M224.99,75.266a2.445,2.445,0,0,1-1.046,1,3.868,3.868,0,0,1-1.84.385h-1.644v3.68h-1.488V71.259H222.1a3.963,3.963,0,0,1,1.769.359,2.5,2.5,0,0,1,1.083.972,2.663,2.663,0,0,1,.359,1.37A2.746,2.746,0,0,1,224.99,75.266Zm-1.619-.215a1.414,1.414,0,0,0,.418-1.091q0-1.487-1.684-1.488h-1.644v2.963H222.1A1.817,1.817,0,0,0,223.371,75.051Z" transform="translate(-97.79 -70.254)" fill="#092b2d"/><path d="M231.432,80.175a2.661,2.661,0,0,1-1.064-.836,2.082,2.082,0,0,1-.417-1.181h1.54a1.046,1.046,0,0,0,.437.764,1.589,1.589,0,0,0,1,.306,1.673,1.673,0,0,0,.972-.241.727.727,0,0,0,.345-.62.635.635,0,0,0-.384-.6,7.253,7.253,0,0,0-1.22-.431,11.812,11.812,0,0,1-1.318-.431,2.3,2.3,0,0,1-.881-.639,1.677,1.677,0,0,1-.373-1.136,1.775,1.775,0,0,1,.339-1.05,2.255,2.255,0,0,1,.973-.75,3.633,3.633,0,0,1,1.455-.275,3,3,0,0,1,1.977.621,2.22,2.22,0,0,1,.8,1.69h-1.488a1.064,1.064,0,0,0-.392-.771,1.468,1.468,0,0,0-.951-.286,1.546,1.546,0,0,0-.9.222.688.688,0,0,0-.313.587.638.638,0,0,0,.208.483,1.509,1.509,0,0,0,.509.307c.2.074.5.168.888.281a9.627,9.627,0,0,1,1.287.425,2.4,2.4,0,0,1,.868.633,1.677,1.677,0,0,1,.378,1.109,1.858,1.858,0,0,1-.339,1.1,2.254,2.254,0,0,1-.959.757,3.961,3.961,0,0,1-2.976-.033Z" transform="translate(-98.001 -70.288)" fill="#092b2d"/><path d="M238.724,80.019a3.326,3.326,0,0,1-1.292-1.305,3.942,3.942,0,0,1-.471-1.951,3.854,3.854,0,0,1,.485-1.945,3.325,3.325,0,0,1,1.317-1.305,4.039,4.039,0,0,1,3.733,0,3.335,3.335,0,0,1,1.318,1.305,3.864,3.864,0,0,1,.483,1.945,3.778,3.778,0,0,1-.5,1.944,3.439,3.439,0,0,1-1.351,1.312,3.91,3.91,0,0,1-1.887.463A3.694,3.694,0,0,1,238.724,80.019Zm2.918-1.1a2.092,2.092,0,0,0,.815-.822,2.643,2.643,0,0,0,.314-1.331,2.708,2.708,0,0,0-.3-1.325,2.041,2.041,0,0,0-.8-.816,2.175,2.175,0,0,0-1.07-.274,2.144,2.144,0,0,0-1.063.274,1.96,1.96,0,0,0-.777.816,2.8,2.8,0,0,0-.287,1.325,2.521,2.521,0,0,0,.594,1.794,1.959,1.959,0,0,0,1.494.633A2.22,2.22,0,0,0,241.642,78.915Z" transform="translate(-98.135 -70.288)" fill="#092b2d"/><path d="M248.947,74.333h-1.331V80.31h-1.5V74.333h-.848V73.119h.848v-.509a2.26,2.26,0,0,1,.66-1.808,3.123,3.123,0,0,1,2.068-.568v1.24a1.393,1.393,0,0,0-.952.255,1.167,1.167,0,0,0-.275.881v.509h1.331Z" transform="translate(-98.294 -70.234)" fill="#092b2d"/><path d="M252.087,74.354v3.98a.761.761,0,0,0,.189.581.935.935,0,0,0,.645.177h.914v1.24h-1.175a2.259,2.259,0,0,1-1.54-.47,1.934,1.934,0,0,1-.535-1.527v-3.98h-.848V73.14h.848V71.352h1.5V73.14h1.749v1.214Z" transform="translate(-98.38 -70.255)" fill="#092b2d"/><path d="M264.954,73.175l-2.231,7.191h-1.567l-1.449-5.312-1.448,5.312h-1.567l-2.244-7.191h1.514l1.5,5.782,1.528-5.782h1.553L262,78.93l1.489-5.755Z" transform="translate(-98.471 -70.29)" fill="#092b2d"/><path d="M266.236,74.818a3.283,3.283,0,0,1,2.942-1.763,3.131,3.131,0,0,1,1.482.333,3.015,3.015,0,0,1,1.012.829V73.173h1.5v7.191h-1.5v-1.07a2.974,2.974,0,0,1-1.032.848,3.339,3.339,0,0,1-3.185-.136,3.377,3.377,0,0,1-1.22-1.332,4.1,4.1,0,0,1-.45-1.938A3.981,3.981,0,0,1,266.236,74.818Zm5.13.652a2.167,2.167,0,0,0-.8-.835,2.093,2.093,0,0,0-1.071-.287,2.134,2.134,0,0,0-1.069.28,2.11,2.11,0,0,0-.8.822,2.574,2.574,0,0,0-.307,1.286,2.688,2.688,0,0,0,.307,1.305,2.156,2.156,0,0,0,.809.854,2.075,2.075,0,0,0,1.063.293,2.1,2.1,0,0,0,1.071-.286,2.153,2.153,0,0,0,.8-.842,2.648,2.648,0,0,0,.307-1.3A2.612,2.612,0,0,0,271.366,75.47Z" transform="translate(-98.688 -70.288)" fill="#092b2d"/><path d="M277.67,73.362a2.56,2.56,0,0,1,1.285-.307v1.54h-.378a1.81,1.81,0,0,0-1.325.444,2.118,2.118,0,0,0-.45,1.54v3.785h-1.488V73.173H276.8v1.045A2.328,2.328,0,0,1,277.67,73.362Z" transform="translate(-98.871 -70.288)" fill="#092b2d"/><path d="M286.952,77.324h-5.494a1.994,1.994,0,0,0,.638,1.383,2.018,2.018,0,0,0,1.409.522,1.739,1.739,0,0,0,1.7-1h1.607a3.249,3.249,0,0,1-1.182,1.625,3.468,3.468,0,0,1-2.122.633,3.679,3.679,0,0,1-1.846-.463,3.289,3.289,0,0,1-1.279-1.305,3.981,3.981,0,0,1-.464-1.951,4.08,4.08,0,0,1,.451-1.952,3.171,3.171,0,0,1,1.265-1.3,3.771,3.771,0,0,1,1.872-.457,3.657,3.657,0,0,1,1.815.444,3.141,3.141,0,0,1,1.241,1.247A3.757,3.757,0,0,1,287,76.593,4.715,4.715,0,0,1,286.952,77.324Zm-1.5-1.2a1.691,1.691,0,0,0-.587-1.317,2.1,2.1,0,0,0-1.422-.5,1.91,1.91,0,0,0-1.319.489,2.042,2.042,0,0,0-.652,1.324Z" transform="translate(-98.959 -70.288)" fill="#092b2d"/></g></g></g></g></svg>