<svg xmlns="http://www.w3.org/2000/svg" width="320" height="104.599" viewBox="0 0 320 104.599"><g transform="translate(160 52.299)"><g transform="translate(-160 -52.299)"><rect width="320" height="104.599" fill="#ff7900" opacity="0"/><g transform="translate(22.948 25.24)"><g transform="translate(71.19 5.177)"><path d="M111.9,51.42H102.64L101.155,55.8H94.831L103.8,31h7l8.974,24.8H113.38Zm-1.555-4.664-3.074-9.081-3.038,9.081Z" transform="translate(-94.831 -30.644)" fill="#442f38"/><path d="M140.533,31v4.841H133.96V55.8h-6.041V35.838h-6.572V31Z" transform="translate(-95.025 -30.644)" fill="#442f38"/><path d="M149.044,54.42a12.143,12.143,0,0,1-4.629-4.541,13.359,13.359,0,0,1,0-13.091,12.2,12.2,0,0,1,4.629-4.523,13.466,13.466,0,0,1,12.826,0,11.952,11.952,0,0,1,4.593,4.523,13.54,13.54,0,0,1-.017,13.091,12.065,12.065,0,0,1-4.593,4.541,13.432,13.432,0,0,1-12.809,0Zm11.165-5.865a7.513,7.513,0,0,0,1.784-5.229,7.5,7.5,0,0,0-1.784-5.247,6.112,6.112,0,0,0-4.752-1.961,6.183,6.183,0,0,0-4.787,1.943,7.485,7.485,0,0,0-1.786,5.265,7.5,7.5,0,0,0,1.786,5.247,6.155,6.155,0,0,0,4.787,1.961A6.085,6.085,0,0,0,160.209,48.555Z" transform="translate(-95.181 -30.641)" fill="#442f38"/><path d="M199.8,31V55.8h-6.042V40.926L188.211,55.8h-4.876l-5.582-14.91V55.8H171.71V31h7.137l6.961,17.172L192.7,31Z" transform="translate(-95.393 -30.644)" fill="#442f38"/></g><g transform="translate(180.738)"><path d="M217.987,31.028a6.475,6.475,0,0,1,2.509,2.307V30.442h6.264v20.4a11.5,11.5,0,0,1-1.118,5.109,8.511,8.511,0,0,1-3.406,3.645,11.021,11.021,0,0,1-5.7,1.354,11.845,11.845,0,0,1-7.362-2.142A8.088,8.088,0,0,1,205.954,53h6.19a2.957,2.957,0,0,0,1.392,1.849,5.074,5.074,0,0,0,2.711.677,4.262,4.262,0,0,0,3.094-1.116,4.793,4.793,0,0,0,1.154-3.572V47.949a6.945,6.945,0,0,1-2.526,2.326,7.63,7.63,0,0,1-3.772.9,8.373,8.373,0,0,1-4.578-1.3,8.972,8.972,0,0,1-3.242-3.7,12.323,12.323,0,0,1-1.19-5.55,12.207,12.207,0,0,1,1.19-5.53,8.872,8.872,0,0,1,3.242-3.662,8.458,8.458,0,0,1,4.578-1.282A7.867,7.867,0,0,1,217.987,31.028Zm1.209,5.933a4.4,4.4,0,0,0-6.336-.018,5.056,5.056,0,0,0-1.3,3.68,5.183,5.183,0,0,0,1.3,3.718,4.363,4.363,0,0,0,6.336.019,5.126,5.126,0,0,0,1.3-3.7A5.128,5.128,0,0,0,219.2,36.961Z" transform="translate(-205.186 -25.461)" fill="#ff7900"/><path d="M250.638,42.162H236.464a4.263,4.263,0,0,0,1.227,2.913,3.753,3.753,0,0,0,2.655,1.008,3.3,3.3,0,0,0,3.26-1.978h6.666a9.157,9.157,0,0,1-1.849,3.626,9.28,9.28,0,0,1-3.351,2.526,10.769,10.769,0,0,1-4.5.916,10.958,10.958,0,0,1-5.348-1.282,9.114,9.114,0,0,1-3.663-3.664,11.3,11.3,0,0,1-1.318-5.566,11.431,11.431,0,0,1,1.3-5.568,8.989,8.989,0,0,1,3.643-3.662,11.878,11.878,0,0,1,10.659-.038,8.957,8.957,0,0,1,3.608,3.554,10.8,10.8,0,0,1,1.3,5.383A15.721,15.721,0,0,1,250.638,42.162Zm-6.3-3.479a3.225,3.225,0,0,0-1.1-2.564,4.046,4.046,0,0,0-2.747-.951,3.969,3.969,0,0,0-2.656.915,4.068,4.068,0,0,0-1.336,2.6Z" transform="translate(-205.369 -25.461)" fill="#ff7900"/><path d="M257.764,50.256a8.138,8.138,0,0,1-3.3-2.509,6.594,6.594,0,0,1-1.355-3.572H259.3a2.378,2.378,0,0,0,.99,1.722,3.5,3.5,0,0,0,2.16.659,3.091,3.091,0,0,0,1.814-.458,1.406,1.406,0,0,0,.64-1.191,1.373,1.373,0,0,0-.916-1.3,18.6,18.6,0,0,0-2.966-.935,27.829,27.829,0,0,1-3.662-1.08,6.3,6.3,0,0,1-2.527-1.795,4.89,4.89,0,0,1-1.062-3.314,5.62,5.62,0,0,1,.971-3.205,6.537,6.537,0,0,1,2.857-2.29,10.963,10.963,0,0,1,4.486-.841,9,9,0,0,1,6.062,1.9,7.415,7.415,0,0,1,2.545,5.055h-5.787a2.5,2.5,0,0,0-.933-1.686,3.249,3.249,0,0,0-2.07-.622,2.871,2.871,0,0,0-1.686.421,1.346,1.346,0,0,0-.586,1.154,1.409,1.409,0,0,0,.934,1.318,14.984,14.984,0,0,0,2.912.879,32.189,32.189,0,0,1,3.7,1.154,6.391,6.391,0,0,1,2.509,1.833,5.191,5.191,0,0,1,1.118,3.387A5.381,5.381,0,0,1,269.8,48.15a6.663,6.663,0,0,1-2.894,2.216,11.067,11.067,0,0,1-4.377.806A11.75,11.75,0,0,1,257.764,50.256Z" transform="translate(-205.536 -25.461)" fill="#ff7900"/><path d="M286.187,45.534v5.311H283a7.8,7.8,0,0,1-5.311-1.667q-1.9-1.666-1.9-5.44v-8.13h-2.491v-5.2h2.491V25.426h6.263v4.981h4.1v5.2h-4.1v8.2a1.719,1.719,0,0,0,.44,1.318,2.148,2.148,0,0,0,1.465.4Z" transform="translate(-205.684 -25.426)" fill="#ff7900"/></g><g transform="translate(71.762 37.848)"><path d="M100.853,69.086a2.082,2.082,0,0,1,.133,2.407,2.163,2.163,0,0,1-.926.781,3.274,3.274,0,0,1-1.411.286H95.407v-8.1H98.5a3.319,3.319,0,0,1,1.424.28,2.1,2.1,0,0,1,.9.751,1.909,1.909,0,0,1,.3,1.055,1.812,1.812,0,0,1-.372,1.166,2.178,2.178,0,0,1-1,.687A1.8,1.8,0,0,1,100.853,69.086Zm-4.116-1.224H98.38a1.578,1.578,0,0,0,1.02-.3,1.04,1.04,0,0,0,.367-.857,1.063,1.063,0,0,0-.367-.858,1.541,1.541,0,0,0-1.02-.308H96.737Zm2.856,3.288a1.13,1.13,0,0,0,.384-.909,1.176,1.176,0,0,0-.408-.945,1.608,1.608,0,0,0-1.084-.349H96.737v2.53h1.795A1.592,1.592,0,0,0,99.593,71.15Z" transform="translate(-95.407 -63.56)" fill="#442f38"/><path d="M108.624,66.148v6.425h-1.329v-.757a2.16,2.16,0,0,1-.822.623,2.615,2.615,0,0,1-1.078.227,2.876,2.876,0,0,1-1.359-.316,2.268,2.268,0,0,1-.944-.933,3.018,3.018,0,0,1-.343-1.491V66.148h1.317v3.579a1.864,1.864,0,0,0,.432,1.324,1.534,1.534,0,0,0,1.177.46,1.555,1.555,0,0,0,1.183-.46,1.848,1.848,0,0,0,.437-1.324V66.148Z" transform="translate(-95.461 -63.572)" fill="#442f38"/><path d="M111.4,72.4a2.37,2.37,0,0,1-.951-.747,1.86,1.86,0,0,1-.373-1.054h1.376a.939.939,0,0,0,.39.682,1.426,1.426,0,0,0,.892.273,1.494,1.494,0,0,0,.869-.215.649.649,0,0,0,.309-.553.569.569,0,0,0-.343-.536,6.4,6.4,0,0,0-1.091-.386,10.17,10.17,0,0,1-1.177-.384,2.048,2.048,0,0,1-.786-.571,1.5,1.5,0,0,1-.333-1.015,1.581,1.581,0,0,1,.3-.938,2.021,2.021,0,0,1,.87-.671,3.241,3.241,0,0,1,1.3-.245,2.683,2.683,0,0,1,1.766.555,1.988,1.988,0,0,1,.717,1.51h-1.328a.95.95,0,0,0-.35-.689,1.313,1.313,0,0,0-.851-.256,1.372,1.372,0,0,0-.8.2.613.613,0,0,0-.28.524.561.561,0,0,0,.187.431,1.276,1.276,0,0,0,.454.274c.179.067.444.151.793.251a8.561,8.561,0,0,1,1.148.379,2.129,2.129,0,0,1,.776.566,1.5,1.5,0,0,1,.339.991,1.671,1.671,0,0,1-.3.98,2.017,2.017,0,0,1-.858.676,3.2,3.2,0,0,1-1.3.244A3.23,3.23,0,0,1,111.4,72.4Z" transform="translate(-95.514 -63.571)" fill="#442f38"/><path d="M116.769,65.033a.854.854,0,0,1,1.2-1.213.873.873,0,0,1,0,1.213.808.808,0,0,1-.595.245A.821.821,0,0,1,116.769,65.033Zm1.26,1.1v6.425H116.7V66.129Z" transform="translate(-95.561 -63.553)" fill="#442f38"/><path d="M124.4,66.358a2.24,2.24,0,0,1,.938.932,3.071,3.071,0,0,1,.339,1.492v3.79h-1.317V68.98a1.863,1.863,0,0,0-.432-1.323,1.743,1.743,0,0,0-2.361,0,1.847,1.847,0,0,0-.437,1.323v3.592H119.8V66.147h1.33v.735a2.194,2.194,0,0,1,.833-.617,2.678,2.678,0,0,1,1.079-.222A2.878,2.878,0,0,1,124.4,66.358Z" transform="translate(-95.585 -63.571)" fill="#442f38"/><path d="M133.261,69.855h-4.908a1.774,1.774,0,0,0,.571,1.235,1.8,1.8,0,0,0,1.26.467,1.554,1.554,0,0,0,1.516-.9h1.433a2.888,2.888,0,0,1-1.055,1.452,3.094,3.094,0,0,1-1.894.565,3.285,3.285,0,0,1-1.651-.414,2.944,2.944,0,0,1-1.142-1.165,3.556,3.556,0,0,1-.414-1.743,3.644,3.644,0,0,1,.4-1.743,2.834,2.834,0,0,1,1.131-1.159,3.371,3.371,0,0,1,1.674-.409,3.276,3.276,0,0,1,1.62.4,2.8,2.8,0,0,1,1.108,1.113,3.358,3.358,0,0,1,.4,1.65A4.07,4.07,0,0,1,133.261,69.855Zm-1.341-1.073A1.51,1.51,0,0,0,131.4,67.6a1.88,1.88,0,0,0-1.271-.443,1.707,1.707,0,0,0-1.177.437,1.832,1.832,0,0,0-.584,1.183Z" transform="translate(-95.638 -63.571)" fill="#442f38"/><path d="M135.64,72.4a2.377,2.377,0,0,1-.951-.747,1.86,1.86,0,0,1-.373-1.054h1.377a.935.935,0,0,0,.39.682,1.421,1.421,0,0,0,.891.273,1.492,1.492,0,0,0,.869-.215.648.648,0,0,0,.31-.553.569.569,0,0,0-.343-.536,6.434,6.434,0,0,0-1.091-.386,10.17,10.17,0,0,1-1.177-.384,2.059,2.059,0,0,1-.787-.571,1.5,1.5,0,0,1-.332-1.015,1.574,1.574,0,0,1,.3-.938,2.018,2.018,0,0,1,.869-.671,3.25,3.25,0,0,1,1.3-.245,2.683,2.683,0,0,1,1.766.555,1.988,1.988,0,0,1,.717,1.51h-1.329a.949.949,0,0,0-.349-.689,1.315,1.315,0,0,0-.851-.256,1.376,1.376,0,0,0-.805.2.613.613,0,0,0-.28.524.561.561,0,0,0,.187.431,1.281,1.281,0,0,0,.455.274c.179.067.444.151.793.251a8.609,8.609,0,0,1,1.148.379,2.125,2.125,0,0,1,.775.566,1.493,1.493,0,0,1,.339.991,1.67,1.67,0,0,1-.3.98,2.023,2.023,0,0,1-.858.676,3.2,3.2,0,0,1-1.3.244A3.234,3.234,0,0,1,135.64,72.4Z" transform="translate(-95.691 -63.571)" fill="#442f38"/><path d="M141.912,72.4a2.373,2.373,0,0,1-.95-.747,1.86,1.86,0,0,1-.373-1.054h1.376a.935.935,0,0,0,.39.682,1.423,1.423,0,0,0,.891.273,1.5,1.5,0,0,0,.87-.215.649.649,0,0,0,.309-.553.569.569,0,0,0-.343-.536,6.4,6.4,0,0,0-1.091-.386,10.17,10.17,0,0,1-1.177-.384,2.059,2.059,0,0,1-.787-.571,1.5,1.5,0,0,1-.332-1.015,1.575,1.575,0,0,1,.3-.938,2.018,2.018,0,0,1,.869-.671,3.25,3.25,0,0,1,1.3-.245,2.683,2.683,0,0,1,1.766.555,1.988,1.988,0,0,1,.717,1.51H144.32a.949.949,0,0,0-.349-.689,1.315,1.315,0,0,0-.851-.256,1.376,1.376,0,0,0-.805.2.613.613,0,0,0-.28.524.564.564,0,0,0,.187.431,1.281,1.281,0,0,0,.455.274c.179.067.444.151.793.251a8.609,8.609,0,0,1,1.148.379,2.125,2.125,0,0,1,.775.566,1.5,1.5,0,0,1,.34.991,1.671,1.671,0,0,1-.3.98,2.023,2.023,0,0,1-.858.676,3.2,3.2,0,0,1-1.3.244A3.234,3.234,0,0,1,141.912,72.4Z" transform="translate(-95.737 -63.571)" fill="#442f38"/><path d="M159.4,66.358a2.271,2.271,0,0,1,.944.932,3.028,3.028,0,0,1,.344,1.492v3.79h-1.317V68.98a1.868,1.868,0,0,0-.431-1.323,1.744,1.744,0,0,0-2.362,0,1.847,1.847,0,0,0-.437,1.323v3.592h-1.317V68.98a1.863,1.863,0,0,0-.432-1.323,1.539,1.539,0,0,0-1.178-.461,1.557,1.557,0,0,0-1.183.461,1.852,1.852,0,0,0-.437,1.323v3.592h-1.329V66.147H151.6v.735a2.207,2.207,0,0,1,.828-.617,2.638,2.638,0,0,1,1.072-.222,2.862,2.862,0,0,1,1.377.327,2.23,2.23,0,0,1,.932.945,2.166,2.166,0,0,1,.909-.928,2.7,2.7,0,0,1,1.329-.343A2.872,2.872,0,0,1,159.4,66.358Z" transform="translate(-95.808 -63.571)" fill="#442f38"/><path d="M162.425,67.616a2.935,2.935,0,0,1,2.629-1.574,2.807,2.807,0,0,1,1.323.3,2.71,2.71,0,0,1,.9.742v-.933h1.341v6.425h-1.341v-.956a2.652,2.652,0,0,1-.921.757,2.983,2.983,0,0,1-2.844-.122,3.012,3.012,0,0,1-1.091-1.189,3.66,3.66,0,0,1-.4-1.731A3.555,3.555,0,0,1,162.425,67.616Zm4.582.584a1.931,1.931,0,0,0-.717-.747,1.885,1.885,0,0,0-.957-.257,1.886,1.886,0,0,0-1.673.986,2.292,2.292,0,0,0-.274,1.149,2.4,2.4,0,0,0,.274,1.166,1.94,1.94,0,0,0,.724.763,1.879,1.879,0,0,0,1.906,0,1.918,1.918,0,0,0,.717-.751,2.36,2.36,0,0,0,.274-1.16A2.325,2.325,0,0,0,167.007,68.2Z" transform="translate(-95.894 -63.571)" fill="#442f38"/><path d="M175.031,66.358a2.24,2.24,0,0,1,.938.932,3.071,3.071,0,0,1,.339,1.492v3.79H174.99V68.98a1.863,1.863,0,0,0-.432-1.323,1.743,1.743,0,0,0-2.361,0,1.847,1.847,0,0,0-.437,1.323v3.592h-1.33V66.147h1.33v.735a2.194,2.194,0,0,1,.833-.617,2.678,2.678,0,0,1,1.079-.222A2.878,2.878,0,0,1,175.031,66.358Z" transform="translate(-95.955 -63.571)" fill="#442f38"/><path d="M178.01,67.616a2.935,2.935,0,0,1,2.629-1.574,2.81,2.81,0,0,1,1.323.3,2.71,2.71,0,0,1,.9.742v-.933h1.341v6.425h-1.341v-.956a2.652,2.652,0,0,1-.921.757,2.985,2.985,0,0,1-2.845-.122,3.017,3.017,0,0,1-1.09-1.189,3.659,3.659,0,0,1-.4-1.731A3.555,3.555,0,0,1,178.01,67.616Zm4.582.584a1.939,1.939,0,0,0-.717-.747,1.9,1.9,0,0,0-2.63.729,2.292,2.292,0,0,0-.274,1.149,2.4,2.4,0,0,0,.274,1.166,1.94,1.94,0,0,0,.724.763,1.879,1.879,0,0,0,1.906,0,1.926,1.926,0,0,0,.717-.751,2.36,2.36,0,0,0,.274-1.16A2.324,2.324,0,0,0,182.592,68.2Z" transform="translate(-96.008 -63.571)" fill="#442f38"/><path d="M189.924,66.339a2.561,2.561,0,0,1,.9.742v-.933h1.341v6.529a3.291,3.291,0,0,1-.373,1.58,2.708,2.708,0,0,1-1.079,1.09,3.4,3.4,0,0,1-1.685.4,3.652,3.652,0,0,1-2.169-.612,2.255,2.255,0,0,1-.979-1.661H187.2a1.422,1.422,0,0,0,.646.81,2.2,2.2,0,0,0,1.183.309,1.77,1.77,0,0,0,1.3-.489,1.913,1.913,0,0,0,.5-1.423V71.6a2.693,2.693,0,0,1-.915.764,2.727,2.727,0,0,1-1.311.309,2.874,2.874,0,0,1-1.534-.425,3,3,0,0,1-1.1-1.189,3.659,3.659,0,0,1-.4-1.731,3.555,3.555,0,0,1,.4-1.714,2.935,2.935,0,0,1,2.63-1.574A2.854,2.854,0,0,1,189.924,66.339Zm.63,1.861a1.932,1.932,0,0,0-.717-.747,1.885,1.885,0,0,0-.957-.257,1.886,1.886,0,0,0-1.673.986,2.292,2.292,0,0,0-.274,1.149,2.4,2.4,0,0,0,.274,1.166,1.94,1.94,0,0,0,.724.763,1.879,1.879,0,0,0,1.906,0,1.919,1.919,0,0,0,.717-.751,2.36,2.36,0,0,0,.274-1.16A2.325,2.325,0,0,0,190.554,68.2Z" transform="translate(-96.066 -63.571)" fill="#442f38"/><path d="M199.817,69.855h-4.908a1.774,1.774,0,0,0,.571,1.235,1.8,1.8,0,0,0,1.26.467,1.554,1.554,0,0,0,1.516-.9h1.433a2.882,2.882,0,0,1-1.055,1.452,3.094,3.094,0,0,1-1.894.565,3.279,3.279,0,0,1-1.65-.414,2.94,2.94,0,0,1-1.143-1.165,3.556,3.556,0,0,1-.414-1.743,3.644,3.644,0,0,1,.4-1.743,2.84,2.84,0,0,1,1.131-1.159,3.371,3.371,0,0,1,1.674-.409,3.275,3.275,0,0,1,1.62.4,2.8,2.8,0,0,1,1.108,1.113,3.347,3.347,0,0,1,.4,1.65A4.07,4.07,0,0,1,199.817,69.855Zm-1.341-1.073a1.51,1.51,0,0,0-.524-1.177,1.878,1.878,0,0,0-1.271-.443,1.709,1.709,0,0,0-1.177.437,1.832,1.832,0,0,0-.584,1.183Z" transform="translate(-96.124 -63.571)" fill="#442f38"/><path d="M210.361,66.358a2.271,2.271,0,0,1,.944.932,3.028,3.028,0,0,1,.344,1.492v3.79h-1.317V68.98a1.868,1.868,0,0,0-.431-1.323,1.744,1.744,0,0,0-2.362,0,1.847,1.847,0,0,0-.437,1.323v3.592h-1.317V68.98a1.863,1.863,0,0,0-.432-1.323,1.539,1.539,0,0,0-1.178-.461,1.557,1.557,0,0,0-1.183.461,1.852,1.852,0,0,0-.437,1.323v3.592h-1.329V66.147h1.329v.735a2.207,2.207,0,0,1,.828-.617,2.638,2.638,0,0,1,1.072-.222,2.862,2.862,0,0,1,1.377.327,2.233,2.233,0,0,1,.931.945,2.169,2.169,0,0,1,.91-.928A2.7,2.7,0,0,1,209,66.042,2.872,2.872,0,0,1,210.361,66.358Z" transform="translate(-96.18 -63.571)" fill="#442f38"/><path d="M219.266,69.855h-4.908a1.775,1.775,0,0,0,.571,1.235,1.8,1.8,0,0,0,1.26.467,1.554,1.554,0,0,0,1.516-.9h1.433a2.888,2.888,0,0,1-1.055,1.452,3.094,3.094,0,0,1-1.894.565,3.285,3.285,0,0,1-1.651-.414A2.944,2.944,0,0,1,213.4,71.1a3.556,3.556,0,0,1-.414-1.743,3.644,3.644,0,0,1,.4-1.743,2.834,2.834,0,0,1,1.131-1.159,3.371,3.371,0,0,1,1.674-.409,3.275,3.275,0,0,1,1.62.4,2.8,2.8,0,0,1,1.108,1.113,3.347,3.347,0,0,1,.4,1.65A4.072,4.072,0,0,1,219.266,69.855Zm-1.341-1.073A1.51,1.51,0,0,0,217.4,67.6a1.88,1.88,0,0,0-1.271-.443,1.709,1.709,0,0,0-1.177.437,1.832,1.832,0,0,0-.584,1.183Z" transform="translate(-96.266 -63.571)" fill="#442f38"/><path d="M225.275,66.358a2.233,2.233,0,0,1,.937.932,3.06,3.06,0,0,1,.339,1.492v3.79h-1.318V68.98a1.863,1.863,0,0,0-.431-1.323,1.539,1.539,0,0,0-1.178-.461,1.556,1.556,0,0,0-1.183.461A1.852,1.852,0,0,0,222,68.98v3.592h-1.329V66.147H222v.735a2.189,2.189,0,0,1,.834-.617,2.676,2.676,0,0,1,1.078-.222A2.879,2.879,0,0,1,225.275,66.358Z" transform="translate(-96.323 -63.571)" fill="#442f38"/><path d="M229.844,67.22v3.557a.683.683,0,0,0,.169.519.846.846,0,0,0,.578.156h.815v1.109h-1.048a2.022,2.022,0,0,1-1.376-.42,1.732,1.732,0,0,1-.479-1.364V67.22h-.757V66.136h.757v-1.6h1.341v1.6h1.562V67.22Z" transform="translate(-96.374 -63.56)" fill="#442f38"/><path d="M236.691,72.4a2.377,2.377,0,0,1-.951-.747,1.86,1.86,0,0,1-.373-1.054h1.376a.938.938,0,0,0,.39.682,1.426,1.426,0,0,0,.892.273,1.494,1.494,0,0,0,.869-.215.647.647,0,0,0,.309-.553.569.569,0,0,0-.343-.536,6.4,6.4,0,0,0-1.091-.386,10.234,10.234,0,0,1-1.177-.384,2.063,2.063,0,0,1-.786-.571,1.5,1.5,0,0,1-.333-1.015,1.575,1.575,0,0,1,.3-.938,2.012,2.012,0,0,1,.869-.671,3.248,3.248,0,0,1,1.3-.245,2.683,2.683,0,0,1,1.766.555,1.985,1.985,0,0,1,.717,1.51H239.1a.95.95,0,0,0-.35-.689,1.313,1.313,0,0,0-.851-.256,1.374,1.374,0,0,0-.8.2.613.613,0,0,0-.28.524.561.561,0,0,0,.187.431,1.272,1.272,0,0,0,.455.274c.178.067.443.151.793.251a8.61,8.61,0,0,1,1.148.379,2.133,2.133,0,0,1,.775.566,1.5,1.5,0,0,1,.339.991,1.671,1.671,0,0,1-.3.98,2.02,2.02,0,0,1-.857.676,3.54,3.54,0,0,1-2.657-.03Z" transform="translate(-96.43 -63.571)" fill="#442f38"/><path d="M243.131,72.262a2.963,2.963,0,0,1-1.155-1.165,3.515,3.515,0,0,1-.42-1.743,3.446,3.446,0,0,1,.432-1.737,2.98,2.98,0,0,1,1.177-1.165,3.6,3.6,0,0,1,3.334,0,2.98,2.98,0,0,1,1.177,1.165,3.446,3.446,0,0,1,.431,1.737,3.369,3.369,0,0,1-.443,1.736,3.05,3.05,0,0,1-1.206,1.172,3.479,3.479,0,0,1-1.685.414A3.288,3.288,0,0,1,243.131,72.262Zm2.6-.986a1.854,1.854,0,0,0,.729-.733,2.367,2.367,0,0,0,.28-1.19,2.422,2.422,0,0,0-.267-1.183,1.818,1.818,0,0,0-.712-.729,1.939,1.939,0,0,0-.956-.245,1.9,1.9,0,0,0-.95.245,1.741,1.741,0,0,0-.694.729,2.5,2.5,0,0,0-.257,1.183,2.256,2.256,0,0,0,.531,1.6,1.753,1.753,0,0,0,1.335.566A1.959,1.959,0,0,0,245.736,71.276Z" transform="translate(-96.475 -63.571)" fill="#442f38"/><path d="M252.173,67.213h-1.189v5.341h-1.341V67.213h-.757V66.129h.757v-.455a2.026,2.026,0,0,1,.589-1.615,2.8,2.8,0,0,1,1.848-.506V64.66a1.247,1.247,0,0,0-.852.228,1.046,1.046,0,0,0-.244.786v.455h1.189Z" transform="translate(-96.529 -63.553)" fill="#442f38"/><path d="M254.931,67.22v3.557a.683.683,0,0,0,.169.519.844.844,0,0,0,.578.156h.815v1.109h-1.048a2.025,2.025,0,0,1-1.377-.42,1.735,1.735,0,0,1-.477-1.364V67.22h-.757V66.136h.757v-1.6h1.341v1.6h1.562V67.22Z" transform="translate(-96.558 -63.56)" fill="#442f38"/><path d="M266.375,66.148l-1.994,6.425h-1.4l-1.294-4.745-1.293,4.745h-1.4l-2.005-6.425h1.352l1.341,5.165,1.364-5.165h1.387l1.306,5.142,1.329-5.142Z" transform="translate(-96.588 -63.572)" fill="#442f38"/><path d="M267.4,67.616a2.935,2.935,0,0,1,2.629-1.574,2.809,2.809,0,0,1,1.323.3,2.72,2.72,0,0,1,.9.742v-.933H273.6v6.425h-1.341v-.956a2.66,2.66,0,0,1-.921.757,2.985,2.985,0,0,1-2.845-.122,3.017,3.017,0,0,1-1.09-1.189,3.66,3.66,0,0,1-.4-1.731A3.556,3.556,0,0,1,267.4,67.616Zm4.582.584a1.938,1.938,0,0,0-.717-.747,1.9,1.9,0,0,0-2.63.729,2.292,2.292,0,0,0-.274,1.149,2.4,2.4,0,0,0,.274,1.166,1.945,1.945,0,0,0,.723.763,1.881,1.881,0,0,0,1.907,0,1.925,1.925,0,0,0,.717-.751,2.36,2.36,0,0,0,.274-1.16A2.325,2.325,0,0,0,271.98,68.2Z" transform="translate(-96.661 -63.571)" fill="#442f38"/><path d="M277.509,66.317a2.288,2.288,0,0,1,1.148-.275v1.376h-.339a1.612,1.612,0,0,0-1.182.4,1.889,1.889,0,0,0-.4,1.376v3.381H275.4V66.147h1.329v.933A2.082,2.082,0,0,1,277.509,66.317Z" transform="translate(-96.723 -63.571)" fill="#442f38"/><path d="M285.752,69.855h-4.908a1.771,1.771,0,0,0,.571,1.235,1.8,1.8,0,0,0,1.26.467,1.553,1.553,0,0,0,1.515-.9h1.434a2.894,2.894,0,0,1-1.055,1.452,3.1,3.1,0,0,1-1.894.565,3.283,3.283,0,0,1-1.651-.414,2.938,2.938,0,0,1-1.142-1.165,3.545,3.545,0,0,1-.415-1.743,3.655,3.655,0,0,1,.4-1.743A2.842,2.842,0,0,1,281,66.451a3.366,3.366,0,0,1,1.674-.409,3.275,3.275,0,0,1,1.62.4,2.8,2.8,0,0,1,1.107,1.113,3.348,3.348,0,0,1,.4,1.65A4.07,4.07,0,0,1,285.752,69.855Zm-1.341-1.073a1.51,1.51,0,0,0-.524-1.177,1.88,1.88,0,0,0-1.271-.443,1.71,1.71,0,0,0-1.178.437,1.831,1.831,0,0,0-.583,1.183Z" transform="translate(-96.752 -63.571)" fill="#442f38"/></g><g transform="translate(264.133 4.1)"><path d="M294.3,29.992a3.1,3.1,0,0,1,1.194,1.2,3.736,3.736,0,0,1,0,3.468,3.1,3.1,0,0,1-1.194,1.2,3.676,3.676,0,0,1-3.468,0,3.15,3.15,0,0,1-1.2-1.2,3.676,3.676,0,0,1,0-3.468,3.159,3.159,0,0,1,1.2-1.2,3.669,3.669,0,0,1,3.468,0Zm.13,4.841a2.937,2.937,0,0,0,0-3.808,2.767,2.767,0,0,0-3.736,0,2.959,2.959,0,0,0,0,3.808,2.766,2.766,0,0,0,3.736,0Zm-.558-1.928a1.063,1.063,0,0,1-.483.394l.855,1.323h-1.226l-.71-1.21h-.113v1.21h-1.017V31.154h1.63a1.277,1.277,0,0,1,.9.315,1.063,1.063,0,0,1,.339.815A1.09,1.09,0,0,1,293.873,32.905Zm-1.678-.316h.549a.333.333,0,0,0,.217-.071.249.249,0,0,0,.088-.2.224.224,0,0,0-.088-.194.36.36,0,0,0-.217-.065h-.549Z" transform="translate(-289.195 -29.556)" fill="#ff7900"/></g><path d="M53.709,31.623v-6.2A24.766,24.766,0,0,0,28.943,50.193H23.117A24.766,24.766,0,0,0,47.884,74.958v6.2A24.766,24.766,0,0,0,72.649,56.39h5.826A24.767,24.767,0,0,0,53.709,31.623Z" transform="translate(-23.117 -25.426)" fill="#ff7900"/></g></g></g></svg>