<svg xmlns="http://www.w3.org/2000/svg" width="36" height="40" viewBox="0 0 36 40"><g transform="translate(8792 9699)"><path d="M28,42.571H8a8.009,8.009,0,0,1-8-8v-24a8.009,8.009,0,0,1,8-8H22.286L36,16.285V34.572A8.009,8.009,0,0,1,28,42.571Z" transform="translate(-8792 -9701.571)" fill="#6b93e3"/><path d="M22.286,2.571H28a8,8,0,0,1,8,8v5.714Z" transform="translate(-8733.714 -9682.715) rotate(180)" fill="#1a52c1"/><path d="M133.333-706.667v-2.222H120v2.222Zm0-5.555v-2.222H120v2.222ZM140-717.778V-720H120v2.222Z" transform="translate(-8904 -8962)" fill="#fff"/></g></svg>