<svg xmlns="http://www.w3.org/2000/svg" width="36" height="40" viewBox="0 0 36 40"><g transform="translate(8792 9699)"><path d="M28,42.571H8a8.009,8.009,0,0,1-8-8v-24a8.009,8.009,0,0,1,8-8H22.286L36,16.285V34.572A8.009,8.009,0,0,1,28,42.571Z" transform="translate(-8792 -9701.571)" fill="#7bc79b"/><path d="M22.286,2.571H28a8,8,0,0,1,8,8v5.714Z" transform="translate(-8733.714 -9682.715) rotate(180)" fill="#33a363"/><path d="M16.2,17h-2L12,13.2,9.8,17h-2L11,12,7.8,7h2L12,10.8,14.2,7h2L13,12m6-9H5A1.993,1.993,0,0,0,3,5V19a2,2,0,0,0,2,2H19a2,2,0,0,0,2-2V5A2,2,0,0,0,19,3Z" transform="translate(-8786 -9688)" fill="#fff"/></g></svg>