<svg xmlns="http://www.w3.org/2000/svg" width="36" height="40" viewBox="0 0 36 40"><g transform="translate(8792 9699)"><path d="M28,42.571H8a8.009,8.009,0,0,1-8-8v-24a8.009,8.009,0,0,1,8-8H22.286L36,16.285V34.572A8.009,8.009,0,0,1,28,42.571Z" transform="translate(-8792 -9701.571)" fill="#cfaaef"/><path d="M16.5,6V17.5a4,4,0,0,1-8,0V5a2.5,2.5,0,0,1,5,0V15.5a1,1,0,0,1-2,0V6H10v9.5a2.5,2.5,0,0,0,5,0V5A4,4,0,1,0,7,5V17.5a5.5,5.5,0,1,0,11,0V6Z" transform="translate(-8786 -9689)" fill="#fff"/><path d="M22.286,2.571H28a8,8,0,0,1,8,8v5.714Z" transform="translate(-8733.714 -9682.715) rotate(180)" fill="#8d34d9"/></g></svg>