<svg xmlns="http://www.w3.org/2000/svg" width="36" height="40" viewBox="0 0 36 40"><g transform="translate(8792 9699)"><path d="M28,42.571H8a8.009,8.009,0,0,1-8-8v-24a8.009,8.009,0,0,1,8-8H22.286L36,16.285V34.572A8.009,8.009,0,0,1,28,42.571Z" transform="translate(-8792 -9701.571)" fill="#ff9e77"/><path d="M22.286,2.571H28a8,8,0,0,1,8,8v5.714Z" transform="translate(-8733.714 -9682.715) rotate(180)" fill="#dc531c"/><path d="M122-822a1.926,1.926,0,0,1-1.412-.588A1.926,1.926,0,0,1,120-824v-14a1.926,1.926,0,0,1,.588-1.412A1.926,1.926,0,0,1,122-840h14a1.926,1.926,0,0,1,1.413.588A1.926,1.926,0,0,1,138-838v14a1.926,1.926,0,0,1-.587,1.412A1.926,1.926,0,0,1,136-822Zm1-4h12l-3.75-5-3,4L126-830Z" transform="translate(-8903 -8845)" fill="#fff"/></g></svg>