<svg xmlns="http://www.w3.org/2000/svg" width="122" height="16.394" viewBox="0 0 122 16.394"><g transform="translate(61 8.197)"><g transform="translate(-61 -8.197)"><path d="M182.19,22.571a4.822,4.822,0,0,1,1.936-1.955,5.8,5.8,0,0,1,2.846-.685,5.411,5.411,0,0,1,3.432,1.076,5.079,5.079,0,0,1,1.809,3.031h-3.559a1.713,1.713,0,0,0-1.74-1.251,1.754,1.754,0,0,0-1.467.714,3.3,3.3,0,0,0-.548,2.044,3.3,3.3,0,0,0,.548,2.044,1.753,1.753,0,0,0,1.467.714,1.713,1.713,0,0,0,1.74-1.252h3.559a5.129,5.129,0,0,1-1.819,3.012,5.356,5.356,0,0,1-3.422,1.095,5.8,5.8,0,0,1-2.846-.684,4.821,4.821,0,0,1-1.936-1.956,6.1,6.1,0,0,1-.694-2.973A6.1,6.1,0,0,1,182.19,22.571Z" transform="translate(-134.481 -14.768)" fill="#f9f9f9"/><path d="M236.439,2.6l-4.713,1.975V2.269L236.439,0Zm-.194,4.391a1.285,1.285,0,0,1-.093-.128,3.214,3.214,0,0,0-.245-.342l-.043-.051a3.609,3.609,0,0,0-1.052-.84,4.2,4.2,0,0,0-2.024-.469,4.519,4.519,0,0,0-2.445.685A4.743,4.743,0,0,0,228.614,7.8a6.52,6.52,0,0,0-.636,2.953,6.577,6.577,0,0,0,.636,2.963,4.792,4.792,0,0,0,1.731,1.975,4.439,4.439,0,0,0,2.425.694,4.2,4.2,0,0,0,2.024-.47,3.614,3.614,0,0,0,1.359-1.232V16.31h3.409V4.338A3.433,3.433,0,0,0,236.246,6.993Zm-.787,5.758a2.328,2.328,0,0,1-3.383-.01,2.768,2.768,0,0,1-.695-1.985,2.7,2.7,0,0,1,.695-1.965,2.35,2.35,0,0,1,3.383.01,2.736,2.736,0,0,1,.694,1.975A2.736,2.736,0,0,1,235.459,12.751Z" transform="translate(-168.923)" fill="#f9f9f9"/><path d="M283.567,28.318l2.366-7.783h3.559l-3.872,10.912h-4.126l-3.872-10.912H281.2Z" transform="translate(-205.707 -15.216)" fill="#f9f9f9"/><path d="M374.02,12.837a4.741,4.741,0,0,1,1.731-1.955A4.519,4.519,0,0,1,378.2,10.2a4.3,4.3,0,0,1,1.965.45,3.586,3.586,0,0,1,1.4,1.213V6.794H384.9V21.266h-3.344V19.7a3.409,3.409,0,0,1-1.34,1.251,4.2,4.2,0,0,1-2.024.47,4.474,4.474,0,0,1-2.445-.694,4.79,4.79,0,0,1-1.731-1.975,6.576,6.576,0,0,1-.636-2.963A6.519,6.519,0,0,1,374.02,12.837Zm6.845,1a2.351,2.351,0,0,0-3.383-.01,2.7,2.7,0,0,0-.694,1.965,2.769,2.769,0,0,0,.694,1.985,2.329,2.329,0,0,0,3.383.01,2.737,2.737,0,0,0,.694-1.975A2.737,2.737,0,0,0,380.864,13.835Z" transform="translate(-276.663 -5.034)" fill="#f9f9f9"/><path d="M429.933,30.472a5.015,5.015,0,0,1-2.015-1.956,6.334,6.334,0,0,1,.01-5.936,5.047,5.047,0,0,1,2.034-1.965,6.46,6.46,0,0,1,5.789,0,5.046,5.046,0,0,1,2.034,1.965,5.8,5.8,0,0,1,.743,2.963,5.736,5.736,0,0,1-.753,2.963,5.094,5.094,0,0,1-2.053,1.966,6.138,6.138,0,0,1-2.9.684A6.019,6.019,0,0,1,429.933,30.472Zm4.517-2.914a2.8,2.8,0,0,0,.675-2.015,2.85,2.85,0,0,0-.655-2.014,2.222,2.222,0,0,0-3.236-.01,2.87,2.87,0,0,0-.645,2.024,2.905,2.905,0,0,0,.636,2.015,2.058,2.058,0,0,0,1.594.7A2.18,2.18,0,0,0,434.45,27.558Z" transform="translate(-316.528 -14.768)" fill="#f9f9f9"/><path d="M332.238,19.4a1.244,1.244,0,0,1-.093-.128,3.22,3.22,0,0,0-.245-.342l-.043-.051a3.609,3.609,0,0,0-1.052-.84,4.2,4.2,0,0,0-2.024-.469,4.519,4.519,0,0,0-2.445.685,4.742,4.742,0,0,0-1.731,1.955,6.519,6.519,0,0,0-.636,2.953,6.576,6.576,0,0,0,.636,2.963,4.792,4.792,0,0,0,1.731,1.975,4.439,4.439,0,0,0,2.425.694,4.2,4.2,0,0,0,2.024-.47,3.614,3.614,0,0,0,1.359-1.232v1.623h3.409V16.747A3.433,3.433,0,0,0,332.238,19.4Zm-.787,5.758a2.329,2.329,0,0,1-3.383-.01,2.769,2.769,0,0,1-.694-1.985,2.7,2.7,0,0,1,.694-1.965,2.351,2.351,0,0,1,3.383.01,2.737,2.737,0,0,1,.694,1.975A2.737,2.737,0,0,1,331.451,25.16Z" transform="translate(-240.049 -12.409)" fill="#f9f9f9"/><g transform="translate(0 2.001)"><rect width="3.428" height="10.8" transform="translate(0 3.431)" fill="#f9f9f9"/><path d="M0,7.723a3.431,3.431,0,0,0,3.431,3.431V7.723Z" transform="translate(0 -7.723)" fill="#f9f9f9"/></g><path d="M101.844,29.293a5.193,5.193,0,0,1-2.088-2.027A6.059,6.059,0,0,1,99,24.184a6.009,6.009,0,0,1,.77-3.071,5.227,5.227,0,0,1,2.108-2.037,6.7,6.7,0,0,1,6,0,5.232,5.232,0,0,1,2.109,2.037,6.014,6.014,0,0,1,.77,3.071,5.951,5.951,0,0,1-.78,3.071,5.282,5.282,0,0,1-2.129,2.037,6.363,6.363,0,0,1-3.01.71A6.244,6.244,0,0,1,101.844,29.293Zm4.683-3.021a2.9,2.9,0,0,0,.7-2.088,2.953,2.953,0,0,0-.679-2.088,2.3,2.3,0,0,0-3.355-.01,2.975,2.975,0,0,0-.669,2.1,3.01,3.01,0,0,0,.659,2.088,2.132,2.132,0,0,0,1.652.73A2.259,2.259,0,0,0,106.527,26.272Z" transform="translate(-73.352 -13.608)" fill="#f9f9f9"/><path d="M158.584,18.523A3.736,3.736,0,0,0,155,21.194V18.679h-3.431a3.428,3.428,0,0,0,3.283,3.424v.008h-3.283v7.846H155v-7.7h3.584Z" transform="translate(-112.31 -13.725)" fill="#f9f9f9"/><path d="M76.42,8.766H74.554V17.2H71.088V8.766H69.831V5.887h1.257V5.563a4.065,4.065,0,0,1,1.2-3.172,5.057,5.057,0,0,1,3.507-1.085c.257,0,.446.007.568.02v2.94a1.989,1.989,0,0,0-1.4.283,1.562,1.562,0,0,0-.406,1.237v.1H76.42Z" transform="translate(-51.742 -0.968)" fill="#f9f9f9"/><path d="M32.807,18.266a4.107,4.107,0,0,0-3.173-1.287,4.509,4.509,0,0,0-2.007.436A3.657,3.657,0,0,0,26.208,18.6V17.1h0v-.661a3.434,3.434,0,0,0-3.433,3.374h0v8.6h3.44V22.27a2.483,2.483,0,0,1,.588-1.764,2.3,2.3,0,0,1,3.163,0,2.482,2.482,0,0,1,.588,1.764v6.142h3.447V21.8A5.021,5.021,0,0,0,32.807,18.266Z" transform="translate(-16.87 -12.181)" fill="#f9f9f9"/></g></g></svg>